<?xml version="1.0" encoding="utf-8"?>
<!-- Generator: Adobe Illustrator 23.0.4, SVG Export Plug-In . SVG Version: 6.00 Build 0)  -->
<svg version="1.1" id="Layer_1" xmlns="http://www.w3.org/2000/svg" xmlns:xlink="http://www.w3.org/1999/xlink" x="0px" y="0px"
	 viewBox="0 0 175 150" style="enable-background:new 0 0 175 150;" xml:space="preserve">
<style type="text/css">
	.st0{fill:#FFFFFF;}
	.st1{fill:#BCBEC0;}
	.st2{fill:none;}
	.st3{fill:#8DC63F;}
	.st4{fill:#333333;}
	.st5{fill:#58595B;}
</style>
<rect x="0.07" y="-0.03" class="st0" width="175" height="150"/>
<g>
	<path class="st1" d="M7.65,80.61c0,0,35.4-9.58,80.15-9.58c46.27,0,79.68,10.52,79.68,10.52c-25.7-3.74-47.32-4.38-76.18-3.51
		c-46.07,1.4-78.05,9.58-78.05,9.58L7.65,80.61z"/>
	<path class="st2" d="M58.09,71.33c3.26-0.29,6.62-0.54,10.08-0.75V59.88L58.09,71.33z"/>
	<path class="st2" d="M107.87,70.64c3.51,0.23,6.91,0.51,10.19,0.83l-10.19-11.59V70.64z"/>
	<path class="st3" d="M68.17,59.88v10.71c4.93-0.3,10.05-0.5,15.3-0.57v-45.3L40.71,73.3c5.34-0.73,11.17-1.42,17.39-1.97
		L68.17,59.88z"/>
	<path class="st3" d="M68.17,104.92l15.3,0V79.4c-5.33,0.26-10.44,0.6-15.3,1.01V104.92z"/>
	<path class="st3" d="M12.88,104.92h15.67l19.71-22.4c-6.94,0.89-13.02,1.85-18.07,2.73L12.88,104.92z"/>
	<path class="st4" d="M92.56,104.91l15.3,0V78.76c-4.83,0.04-9.91,0.14-15.3,0.29V104.91z"/>
	<path class="st4" d="M107.87,59.88l10.19,11.59c6.35,0.62,12.25,1.38,17.59,2.2L92.56,24.71v45.31c5.29,0.08,10.4,0.3,15.3,0.62
		V59.88z"/>
	<path class="st4" d="M147.49,104.92h15.67l-22.2-25.22c-5.3-0.38-10.7-0.64-16.35-0.79L147.49,104.92z"/>
	<g>
		<path class="st5" d="M14.09,117.5l-1.15,3.48h-1.48l3.76-11.06h1.72l3.77,11.06h-1.53l-1.18-3.48H14.09z M17.71,116.39l-1.08-3.18
			c-0.25-0.72-0.41-1.38-0.57-2.02h-0.03c-0.16,0.66-0.34,1.33-0.56,2l-1.08,3.2H17.71z"/>
		<path class="st5" d="M29.32,120.62c-0.53,0.26-1.58,0.53-2.92,0.53c-3.12,0-5.46-1.97-5.46-5.59c0-3.46,2.35-5.81,5.77-5.81
			c1.38,0,2.25,0.29,2.62,0.49L29,111.4c-0.54-0.26-1.31-0.46-2.23-0.46c-2.59,0-4.31,1.66-4.31,4.56c0,2.71,1.56,4.45,4.25,4.45
			c0.87,0,1.76-0.18,2.33-0.46L29.32,120.62z"/>
		<path class="st5" d="M37.67,120.62c-0.53,0.26-1.58,0.53-2.92,0.53c-3.12,0-5.46-1.97-5.46-5.59c0-3.46,2.35-5.81,5.77-5.81
			c1.38,0,2.25,0.29,2.62,0.49l-0.34,1.17c-0.54-0.26-1.31-0.46-2.23-0.46c-2.59,0-4.31,1.66-4.31,4.56c0,2.71,1.56,4.45,4.25,4.45
			c0.87,0,1.76-0.18,2.33-0.46L37.67,120.62z"/>
		<path class="st5" d="M40.39,109.92v6.54c0,2.48,1.1,3.53,2.58,3.53c1.64,0,2.69-1.08,2.69-3.53v-6.54h1.44v6.45
			c0,3.4-1.79,4.79-4.18,4.79c-2.26,0-3.97-1.3-3.97-4.72v-6.51H40.39z"/>
		<path class="st5" d="M48.75,110.07c0.72-0.15,1.75-0.23,2.74-0.23c1.53,0,2.51,0.28,3.2,0.9c0.56,0.49,0.87,1.25,0.87,2.1
			c0,1.46-0.92,2.43-2.08,2.82v0.05c0.85,0.3,1.36,1.08,1.62,2.23c0.36,1.54,0.62,2.61,0.85,3.03h-1.48
			c-0.18-0.31-0.43-1.26-0.74-2.64c-0.33-1.53-0.92-2.1-2.21-2.15h-1.34v4.79h-1.43V110.07z M50.18,115.11h1.46
			c1.53,0,2.49-0.84,2.49-2.1c0-1.43-1.03-2.05-2.54-2.07c-0.69,0-1.18,0.07-1.41,0.13V115.11z"/>
		<path class="st5" d="M59.28,117.5l-1.15,3.48h-1.48l3.76-11.06h1.72l3.77,11.06h-1.53l-1.18-3.48H59.28z M62.91,116.39l-1.08-3.18
			c-0.25-0.72-0.41-1.38-0.57-2.02h-0.03c-0.16,0.66-0.34,1.33-0.56,2l-1.08,3.2H62.91z"/>
		<path class="st5" d="M68.2,111.14h-3.36v-1.21h8.19v1.21h-3.38v9.84H68.2V111.14z"/>
		<path class="st5" d="M79.81,115.8h-4.3v3.99h4.79v1.2h-6.22v-11.06h5.97v1.2h-4.54v3.49h4.3V115.8z"/>
		<path class="st5" d="M87.09,117.5l-1.15,3.48h-1.48l3.76-11.06h1.72l3.77,11.06h-1.53l-1.18-3.48H87.09z M90.72,116.39l-1.08-3.18
			c-0.25-0.72-0.41-1.38-0.57-2.02h-0.03c-0.16,0.66-0.34,1.33-0.56,2l-1.08,3.2H90.72z"/>
		<path class="st5" d="M95.18,110.06c0.69-0.11,1.59-0.21,2.74-0.21c1.41,0,2.44,0.33,3.1,0.92c0.61,0.52,0.97,1.33,0.97,2.31
			c0,1-0.29,1.79-0.85,2.36c-0.75,0.8-1.99,1.21-3.38,1.21c-0.43,0-0.82-0.02-1.15-0.1v4.43h-1.43V110.06z M96.6,115.39
			c0.31,0.08,0.71,0.12,1.18,0.12c1.72,0,2.77-0.84,2.77-2.36c0-1.46-1.03-2.17-2.61-2.17c-0.62,0-1.1,0.05-1.34,0.11V115.39z"/>
		<path class="st5" d="M103.74,110.06c0.69-0.11,1.59-0.21,2.74-0.21c1.41,0,2.44,0.33,3.1,0.92c0.61,0.52,0.97,1.33,0.97,2.31
			c0,1-0.29,1.79-0.85,2.36c-0.75,0.8-1.99,1.21-3.38,1.21c-0.43,0-0.82-0.02-1.15-0.1v4.43h-1.43V110.06z M105.16,115.39
			c0.31,0.08,0.71,0.12,1.18,0.12c1.72,0,2.77-0.84,2.77-2.36c0-1.46-1.03-2.17-2.61-2.17c-0.62,0-1.1,0.05-1.34,0.11V115.39z"/>
		<path class="st5" d="M111.97,110.07c0.72-0.15,1.75-0.23,2.74-0.23c1.53,0,2.51,0.28,3.2,0.9c0.56,0.49,0.87,1.25,0.87,2.1
			c0,1.46-0.92,2.43-2.08,2.82v0.05c0.85,0.3,1.36,1.08,1.62,2.23c0.36,1.54,0.62,2.61,0.85,3.03h-1.48
			c-0.18-0.31-0.43-1.26-0.74-2.64c-0.33-1.53-0.92-2.1-2.21-2.15h-1.34v4.79h-1.43V110.07z M113.4,115.11h1.46
			c1.53,0,2.49-0.84,2.49-2.1c0-1.43-1.03-2.05-2.54-2.07c-0.69,0-1.18,0.07-1.41,0.13V115.11z"/>
		<path class="st5" d="M122.5,117.5l-1.15,3.48h-1.48l3.76-11.06h1.72l3.77,11.06h-1.53l-1.18-3.48H122.5z M126.12,116.39
			l-1.08-3.18c-0.25-0.72-0.41-1.38-0.57-2.02h-0.03c-0.16,0.66-0.34,1.33-0.56,2l-1.08,3.2H126.12z"/>
		<path class="st5" d="M132.01,109.92v11.06h-1.43v-11.06H132.01z"/>
		<path class="st5" d="M133.81,119.24c0.64,0.39,1.57,0.72,2.56,0.72c1.46,0,2.31-0.77,2.31-1.89c0-1.03-0.59-1.62-2.08-2.2
			c-1.8-0.64-2.92-1.57-2.92-3.13c0-1.72,1.43-3,3.58-3c1.13,0,1.95,0.26,2.44,0.54l-0.39,1.17c-0.36-0.2-1.1-0.52-2.1-0.52
			c-1.51,0-2.08,0.9-2.08,1.66c0,1.03,0.67,1.54,2.2,2.13c1.87,0.72,2.82,1.62,2.82,3.25c0,1.71-1.26,3.18-3.87,3.18
			c-1.07,0-2.23-0.31-2.82-0.71L133.81,119.24z"/>
		<path class="st5" d="M143.39,117.5l-1.15,3.48h-1.48l3.76-11.06h1.72l3.77,11.06h-1.53l-1.18-3.48H143.39z M147.02,116.39
			l-1.08-3.18c-0.25-0.72-0.41-1.38-0.57-2.02h-0.03c-0.16,0.66-0.34,1.33-0.56,2l-1.08,3.2H147.02z"/>
		<path class="st5" d="M151.47,109.92h1.43v9.86h4.72v1.2h-6.15V109.92z"/>
		<path class="st5" d="M159.18,119.24c0.64,0.39,1.58,0.72,2.56,0.72c1.46,0,2.31-0.77,2.31-1.89c0-1.03-0.59-1.62-2.08-2.2
			c-1.8-0.64-2.92-1.57-2.92-3.13c0-1.72,1.43-3,3.58-3c1.13,0,1.95,0.26,2.44,0.54l-0.39,1.17c-0.36-0.2-1.1-0.52-2.1-0.52
			c-1.51,0-2.08,0.9-2.08,1.66c0,1.03,0.67,1.54,2.2,2.13c1.87,0.72,2.82,1.62,2.82,3.25c0,1.71-1.26,3.18-3.87,3.18
			c-1.07,0-2.23-0.31-2.82-0.71L159.18,119.24z"/>
	</g>
</g>
<g>
	<path class="st1" d="M207.87,229.74c0,0,35.4-9.58,80.15-9.58c46.27,0,79.68,10.52,79.68,10.52c-25.7-3.74-47.32-4.38-76.18-3.51
		c-46.07,1.4-78.05,9.58-78.05,9.58L207.87,229.74z"/>
	<path class="st2" d="M258.31,220.46c3.26-0.29,6.62-0.54,10.08-0.75v-10.71L258.31,220.46z"/>
	<path class="st2" d="M308.09,219.77c3.51,0.23,6.91,0.51,10.19,0.83l-10.19-11.59V219.77z"/>
	<path class="st3" d="M268.39,209.01v10.71c4.93-0.3,10.05-0.5,15.3-0.57v-45.3l-42.77,48.59c5.34-0.73,11.17-1.42,17.39-1.97
		L268.39,209.01z"/>
	<path class="st3" d="M268.39,254.05l15.3,0v-25.51c-5.33,0.26-10.44,0.6-15.3,1.01V254.05z"/>
	<path class="st3" d="M213.1,254.05h15.67l19.71-22.4c-6.94,0.89-13.02,1.85-18.07,2.73L213.1,254.05z"/>
	<path class="st4" d="M292.78,254.04l15.3,0V227.9c-4.83,0.04-9.91,0.14-15.3,0.29V254.04z"/>
	<path class="st4" d="M308.09,209.01l10.19,11.59c6.35,0.62,12.25,1.38,17.59,2.2l-43.09-48.96v45.31c5.29,0.08,10.4,0.3,15.3,0.62
		V209.01z"/>
	<path class="st4" d="M347.71,254.05h15.67l-22.2-25.22c-5.3-0.38-10.7-0.64-16.35-0.79L347.71,254.05z"/>
	<text transform="matrix(1 0 0 1 210.7236 270.1114)"><tspan x="0" y="0" class="st5" style="font-family:'MyriadPro-Regular'; font-size:16.3986px;">A</tspan><tspan x="9.3" y="0" class="st5" style="font-family:'MyriadPro-Regular'; font-size:16.3986px; letter-spacing:-1;">C</tspan><tspan x="17.64" y="0" class="st5" style="font-family:'MyriadPro-Regular'; font-size:16.3986px;">C</tspan><tspan x="26.66" y="0" class="st5" style="font-family:'MyriadPro-Regular'; font-size:16.3986px;">U</tspan><tspan x="36.45" y="0" class="st5" style="font-family:'MyriadPro-Regular'; font-size:16.3986px;">RATE AP</tspan><tspan x="92.62" y="0" class="st5" style="font-family:'MyriadPro-Regular'; font-size:16.3986px;">P</tspan><tspan x="100.85" y="0" class="st5" style="font-family:'MyriadPro-Regular'; font-size:16.3986px;">RA</tspan><tspan x="119.38" y="0" class="st5" style="font-family:'MyriadPro-Regular'; font-size:16.3986px;">IS</tspan><tspan x="130.4" y="0" class="st5" style="font-family:'MyriadPro-Regular'; font-size:16.3986px;">A</tspan><tspan x="140.27" y="0" class="st5" style="font-family:'MyriadPro-Regular'; font-size:16.3986px;">L</tspan><tspan x="148.18" y="0" class="st5" style="font-family:'MyriadPro-Regular'; font-size:16.3986px;">S</tspan></text>
</g>
</svg>
