<?xml version="1.0" encoding="utf-8"?>
<!-- Generator: Adobe Illustrator 23.0.4, SVG Export Plug-In . SVG Version: 6.00 Build 0)  -->
<svg version="1.1" id="Layer_1" xmlns="http://www.w3.org/2000/svg" xmlns:xlink="http://www.w3.org/1999/xlink" x="0px" y="0px"
	 viewBox="0 0 546 160" style="enable-background:new 0 0 546 160;" xml:space="preserve">
<style type="text/css">
	.st0{fill:#8DC63F;}
	.st1{fill:#58595B;}
	.st2{fill:#BCBEC0;}
</style>
<polygon class="st0" points="107.09,138.13 107.09,24.11 7.14,138.13 28.25,138.13 85.65,73.43 85.65,138.13 "/>
<polygon class="st1" points="119.87,138.13 119.87,24.11 219.82,138.13 198.71,138.13 141.31,73.43 141.31,138.13 "/>
<g>
	<path class="st1" d="M236.16,55.12l-4.33,14.58h-5.57l14.17-46.34h6.5l14.24,46.34h-5.76l-4.46-14.58
		C250.95,55.12,236.16,55.12,236.16,55.12z M249.84,50.44l-4.08-13.34c-0.93-3.02-1.55-5.77-2.17-8.46h-0.12
		c-0.62,2.75-1.3,5.57-2.1,8.39l-4.08,13.41H249.84z"/>
	<path class="st1" d="M295.5,68.18c-1.98,1.1-5.94,2.2-11.02,2.2c-11.76,0-20.61-8.25-20.61-23.45c0-14.51,8.85-24.34,21.78-24.34
		c5.2,0,8.48,1.24,9.9,2.06l-1.3,4.88c-2.04-1.1-4.95-1.92-8.42-1.92c-9.78,0-16.28,6.95-16.28,19.11
		c0,11.35,5.88,18.63,16.03,18.63c3.28,0,6.62-0.75,8.79-1.92L295.5,68.18z"/>
	<path class="st1" d="M330.09,68.18c-1.98,1.1-5.94,2.2-11.02,2.2c-11.76,0-20.61-8.25-20.61-23.45c0-14.51,8.85-24.34,21.78-24.34
		c5.2,0,8.48,1.24,9.9,2.06l-1.3,4.88c-2.04-1.1-4.95-1.92-8.42-1.92c-9.78,0-16.28,6.95-16.28,19.11
		c0,11.35,5.88,18.63,16.03,18.63c3.28,0,6.62-0.75,8.79-1.92L330.09,68.18z"/>
	<path class="st1" d="M342.21,23.35v27.44c0,10.38,4.15,14.78,9.72,14.78c6.19,0,10.15-4.54,10.15-14.78V23.35h5.45v27.02
		c0,14.23-6.75,20.08-15.78,20.08c-8.54,0-14.98-5.43-14.98-19.8v-27.3C336.77,23.35,342.21,23.35,342.21,23.35z"/>
	<path class="st1" d="M376.86,23.97c2.72-0.62,6.62-0.97,10.33-0.97c5.76,0,9.47,1.17,12.07,3.78c2.1,2.06,3.28,5.23,3.28,8.8
		c0,6.12-3.47,10.18-7.86,11.83v0.21c3.22,1.24,5.14,4.54,6.13,9.35c1.36,6.46,2.35,10.94,3.22,12.72h-5.57
		c-0.68-1.31-1.61-5.29-2.78-11.07c-1.24-6.4-3.47-8.8-8.36-9.01h-5.07v20.08h-5.38V23.97H376.86z M382.24,45.08h5.51
		c5.76,0,9.41-3.5,9.41-8.8c0-5.98-3.9-8.6-9.59-8.66c-2.6,0-4.46,0.27-5.32,0.55v16.91H382.24z"/>
	<path class="st1" d="M417.2,55.12l-4.33,14.58h-5.57l14.17-46.34h6.5l14.24,46.34h-5.76l-4.46-14.58
		C431.99,55.12,417.2,55.12,417.2,55.12z M430.88,50.44L426.8,37.1c-0.93-3.02-1.55-5.77-2.17-8.46h-0.12
		c-0.62,2.75-1.3,5.57-2.1,8.39l-4.08,13.41H430.88z"/>
	<path class="st1" d="M451.48,28.44h-12.69v-5.09h30.88v5.09h-12.75V69.7h-5.45V28.44H451.48z"/>
	<path class="st1" d="M495.9,47.96h-16.21v16.71h18.07v5.02H474.3V23.35h22.53v5.02h-17.14v14.64h16.21V47.96z"/>
</g>
<g>
	<path class="st1" d="M236.16,123.48l-4.33,14.58h-5.57l14.17-46.34h6.5l14.23,46.34h-5.76l-4.45-14.58
		C250.95,123.48,236.16,123.48,236.16,123.48z M249.84,118.81l-4.09-13.34c-0.93-3.02-1.55-5.77-2.17-8.46h-0.12
		c-0.62,2.75-1.3,5.57-2.1,8.39l-4.08,13.41H249.84z"/>
	<path class="st1" d="M267.28,92.27c2.6-0.48,6-0.9,10.34-0.9c5.32,0,9.22,1.38,11.7,3.85c2.29,2.2,3.65,5.57,3.65,9.7
		c0,4.19-1.11,7.49-3.22,9.9c-2.85,3.37-7.49,5.09-12.75,5.09c-1.61,0-3.09-0.07-4.33-0.41v18.56h-5.38V92.27H267.28z
		 M272.66,114.62c1.18,0.34,2.66,0.48,4.46,0.48c6.5,0,10.46-3.51,10.46-9.9c0-6.12-3.9-9.08-9.84-9.08c-2.35,0-4.15,0.21-5.07,0.48
		L272.66,114.62L272.66,114.62z"/>
	<path class="st1" d="M300.2,92.27c2.6-0.48,6-0.9,10.34-0.9c5.32,0,9.22,1.38,11.7,3.85c2.29,2.2,3.65,5.57,3.65,9.7
		c0,4.19-1.11,7.49-3.22,9.9c-2.85,3.37-7.49,5.09-12.75,5.09c-1.61,0-3.09-0.07-4.33-0.41v18.56h-5.38V92.27H300.2z M305.58,114.62
		c1.18,0.34,2.66,0.48,4.45,0.48c6.5,0,10.46-3.51,10.46-9.9c0-6.12-3.9-9.08-9.84-9.08c-2.35,0-4.15,0.21-5.07,0.48V114.62z"/>
	<path class="st1" d="M333.12,92.34c2.72-0.62,6.62-0.96,10.34-0.96c5.76,0,9.47,1.17,12.07,3.78c2.1,2.06,3.28,5.23,3.28,8.8
		c0,6.12-3.46,10.18-7.86,11.83V116c3.22,1.24,5.14,4.54,6.13,9.35c1.36,6.46,2.35,10.94,3.22,12.72h-5.57
		c-0.68-1.31-1.61-5.29-2.79-11.07c-1.24-6.4-3.47-8.8-8.36-9.01h-5.07v20.08h-5.38V92.34H333.12z M338.5,113.45h5.51
		c5.76,0,9.41-3.5,9.41-8.8c0-5.98-3.9-8.6-9.59-8.66c-2.6,0-4.45,0.27-5.32,0.55v16.91H338.5z"/>
	<path class="st1" d="M373.45,123.48l-4.33,14.58h-5.57l14.17-46.34h6.5l14.23,46.34h-5.76l-4.45-14.58
		C388.24,123.48,373.45,123.48,373.45,123.48z M387.13,118.81l-4.09-13.34c-0.93-3.02-1.55-5.77-2.17-8.46h-0.13
		c-0.62,2.75-1.3,5.57-2.1,8.39l-4.08,13.41H387.13z"/>
	<path class="st1" d="M409.96,91.72v46.34h-5.38V91.72H409.96z"/>
	<path class="st1" d="M418.62,130.77c2.41,1.65,5.94,3.03,9.65,3.03c5.51,0,8.73-3.23,8.73-7.91c0-4.33-2.23-6.81-7.86-9.21
		c-6.81-2.68-11.01-6.6-11.01-13.13c0-7.22,5.38-12.59,13.49-12.59c4.27,0,7.37,1.1,9.22,2.27l-1.49,4.88
		c-1.36-0.83-4.15-2.2-7.92-2.2c-5.69,0-7.86,3.78-7.86,6.94c0,4.33,2.54,6.46,8.29,8.94c7.05,3.03,10.64,6.81,10.64,13.62
		c0,7.15-4.77,13.34-14.61,13.34c-4.02,0-8.42-1.31-10.65-2.96L418.62,130.77z"/>
	<path class="st1" d="M456.61,123.48l-4.33,14.58h-5.57l14.17-46.34h6.5l14.23,46.34h-5.76l-4.45-14.58
		C471.4,123.48,456.61,123.48,456.61,123.48z M470.29,118.81l-4.09-13.34c-0.93-3.02-1.55-5.77-2.17-8.46h-0.13
		c-0.62,2.75-1.3,5.57-2.1,8.39l-4.08,13.41H470.29z"/>
	<path class="st1" d="M487.73,91.72h5.38v41.32h17.82v5.02h-23.21L487.73,91.72L487.73,91.72z"/>
	<path class="st1" d="M516.19,130.77c2.41,1.65,5.94,3.03,9.65,3.03c5.51,0,8.73-3.23,8.73-7.91c0-4.33-2.23-6.81-7.86-9.21
		c-6.81-2.68-11.01-6.6-11.01-13.13c0-7.22,5.38-12.59,13.49-12.59c4.27,0,7.37,1.1,9.22,2.27l-1.49,4.88
		c-1.36-0.83-4.15-2.2-7.92-2.2c-5.69,0-7.86,3.78-7.86,6.94c0,4.33,2.54,6.46,8.29,8.94c7.05,3.03,10.64,6.81,10.64,13.62
		c0,7.15-4.77,13.34-14.61,13.34c-4.02,0-8.42-1.31-10.65-2.96L516.19,130.77z"/>
</g>
<path class="st2" d="M6.96,113.94l-8.09-10.21c0,0,39.13-10.33,101.12-13.32c60.62-2.92,127.23,14.34,127.23,14.34
	s-70.97-6.35-129.07-2.62C40.06,105.85,6.96,113.94,6.96,113.94z"/>
</svg>
